# xmcd CD database file
#
# Track frame offsets:
#	150
#	23816
#	48239
#	59882
#	72180
#	90232
#	102220
#	117329
#	134718
#	146007
#	169135
#	190774
#	202412
#	218639
#	249760
#	269275
#	289846
#	301210
#	316937
#	337492
#
# Disc length: 4735 seconds
#
# Revision: 0
# Processed by: cddbd v1.5.2PL0 Copyright (c) Steve Scherf et al.
# Submitted via: CDex 2.09
#
DISCID=38127d14
DTITLE=Dave Brubeck - 60 Essential Recordings [CD3)
DYEAR=2018
DGENRE=Jazz
TTITLE0=It's A Raggy Waltz
TTITLE1=Three To Get Ready
TTITLE2=Frenesi
TTITLE3=Let's Fall In Love
TTITLE4=Weep No More
TTITLE5=Love Walked In
TTITLE6=All The Things You Are
TTITLE7=A Fine Romance
TTITLE8=Me And My Shadow
TTITLE9=Keepin' Out Of Mischief Now
TTITLE10=Curtain Time
TTITLE11=I Didn't Know What Time It Was
TTITLE12=Thank You (Dziekuje)
TTITLE13=Brandenburg Gate
TTITLE14=Pick Up Sticks
TTITLE15=Basin Street Blues
TTITLE16=Short'nin' Bread
TTITLE17=Maria
TTITLE18=Somewhere
TTITLE19=Home At Last
EXTD=YEAR: 2018
EXTT0=
EXTT1=
EXTT2=
EXTT3=
EXTT4=
EXTT5=
EXTT6=
EXTT7=
EXTT8=
EXTT9=
EXTT10=
EXTT11=
EXTT12=
EXTT13=
EXTT14=
EXTT15=
EXTT16=
EXTT17=
EXTT18=
EXTT19=
PLAYORDER=
